<svg xmlns="http://www.w3.org/2000/svg" viewBox="0 0 200 200">
  <defs>
    <linearGradient id="leafGrad" x1="0%" y1="0%" x2="100%" y2="100%">
      <stop offset="0%" style="stop-color:#2d5016;stop-opacity:1" />
      <stop offset="100%" style="stop-color:#5a9a3a;stop-opacity:1" />
    </linearGradient>
  </defs>
  
  <!-- Background circle - adaptive to dark/light mode -->
  <circle cx="100" cy="100" r="95" fill="#5a9a3a" stroke="#2d5016" stroke-width="3"/>
  
  <!-- Stem -->
  <rect x="95" y="80" width="10" height="70" rx="2" fill="#8b6914"/>
  
  <!-- Leaves -->
  <ellipse cx="75" cy="90" rx="30" ry="18" fill="#d4f1d4" transform="rotate(-30 75 90)"/>
  <ellipse cx="125" cy="95" rx="28" ry="16" fill="#d4f1d4" transform="rotate(25 125 95)"/>
  <ellipse cx="70" cy="115" rx="26" ry="15" fill="#d4f1d4" transform="rotate(-45 70 115)"/>
  <ellipse cx="130" cy="120" rx="25" ry="14" fill="#d4f1d4" transform="rotate(35 130 120)"/>
  
  <!-- Central large leaf -->
  <ellipse cx="100" cy="65" rx="35" ry="22" fill="#e8f5e8"/>
  <path d="M 100 65 Q 100 45, 100 50" stroke="#2d5016" stroke-width="2" fill="none"/>
  
  <!-- Soil/pot base -->
  <path d="M 60 150 L 65 170 Q 100 180, 135 170 L 140 150 Z" fill="#6b4423" stroke="#4a2f1a" stroke-width="2"/>
</svg>